<?xml version="1.0" standalone="no"?>
<!DOCTYPE svg PUBLIC "-//W3C//DTD SVG 20010904//EN"
 "http://www.w3.org/TR/2001/REC-SVG-20010904/DTD/svg10.dtd">
<svg version="1.0" xmlns="http://www.w3.org/2000/svg"
 width="400.000000pt" height="400.000000pt" viewBox="0 0 400.000000 400.000000"
 preserveAspectRatio="xMidYMid meet">
<metadata>
Created by potrace 1.11, written by Peter Selinger 2001-2013
</metadata>
<g transform="translate(0.000000,400.000000) scale(0.100000,-0.100000)"
fill="#000000" stroke="none">
<path d="M294 3985 c-141 -45 -244 -150 -283 -290 -8 -29 -10 -510 -8 -1716
l2 -1675 38 -76 c44 -91 102 -146 197 -192 l65 -31 1680 -2 c1674 -2 1680 -2
1740 18 109 38 190 113 243 226 l27 58 0 1695 0 1695 -32 67 c-44 93 -100 151
-191 196 l-76 37 -1680 2 c-1344 1 -1689 -1 -1722 -12z"/>
</g>
</svg>
